<?xml version="1.0" encoding="utf-8"?>
<!-- Generator: Adobe Illustrator 25.2.2, SVG Export Plug-In . SVG Version: 6.00 Build 0)  -->
<svg version="1.1" id="Layer_1" xmlns="http://www.w3.org/2000/svg" xmlns:xlink="http://www.w3.org/1999/xlink" x="0px" y="0px"
	 viewBox="0 0 36.58 28.19" style="enable-background:new 0 0 36.58 28.19;" xml:space="preserve">
<path d="M2.9,23.6c5,0.8,9.99,1.78,15.02,2.36c4.59,0.53,9.24,0.6,13.86,0.93c1.73,0.12,2.28-0.91,2.38-2.31
	c0.44-6.44,0.85-12.88,1.2-19.32c0.1-1.9-0.45-3.42-2.84-3.45C23.79,1.66,15.07,1.34,6.35,1.35C1.7,1.35,1.08,2.6,1.3,7.33
	C1.55,12.8,1.36,18.3,0.9,23.81c-0.13-2.23-0.28-4.46-0.4-6.69c-0.18-3.35-0.38-6.69-0.48-10.05C-0.16,0.83,0.73-0.03,5.82,0
	c9,0.06,17.99,0.23,26.99,0.47c2.88,0.08,3.83,1.18,3.77,4.18c-0.08,3.73-0.39,7.45-0.62,11.17c-0.15,2.53-0.39,5.06-0.47,7.6
	c-0.11,3.7-1,4.48-4.65,4.68c-8.92,0.5-17.54-1.61-26.26-2.84c-0.73-0.1-1.38-0.71-2.07-1.08C2.63,23.99,2.77,23.79,2.9,23.6z"/>
</svg>
