<?xml version="1.0" encoding="utf-8"?>
<!-- Generator: Adobe Illustrator 25.2.2, SVG Export Plug-In . SVG Version: 6.00 Build 0)  -->
<svg version="1.1" id="Layer_1" xmlns="http://www.w3.org/2000/svg" xmlns:xlink="http://www.w3.org/1999/xlink" x="0px" y="0px"
	 viewBox="0 0 729.8 8.72" style="enable-background:new 0 0 729.8 8.72;" xml:space="preserve">
<path d="M0,4.65C1.15,3.9,1.9,2.97,2.79,2.89c9.06-0.82,18.1-1.81,27.2-2.15c13.87-0.51,27.78-0.9,41.65-0.67
	c26.15,0.43,52.29,1.45,78.42,2.01c18.66,0.4,37.36,0.7,56.04,0.59c15.58-0.09,31.15-1.2,46.73-1.24
	c28.47-0.08,56.96,0.17,85.44,0.53c27.83,0.35,55.64,1.06,83.48,1.53c36.2,0.61,72.41,1.13,108.62,1.72
	c32.21,0.52,64.41,1.11,96.62,1.64c19.97,0.33,39.93,0.78,59.9,0.83c8.19,0.02,16.39-0.88,24.58-1.38
	c6.06-0.37,12.1-0.78,18.14-1.18c0.07,0.35,0.13,0.7,0.2,1.05c-1.73,0.15-3.45,0.28-5.18,0.45c-1.91,0.19-3.82,0.42-5.73,0.62
	c-23.97,2.58-48.04,1.07-72.08,0.82C628,7.87,609.18,7.88,590.37,7.59c-26.42-0.42-52.83-1.1-79.23-1.55
	c-34.78-0.59-69.57-1.05-104.35-1.6c-31.17-0.49-62.35-1.14-93.52-1.53c-24.23-0.31-48.47-0.54-72.69-0.4
	c-15.83,0.1-31.68,1.54-47.49,1.33C157.02,3.35,120.96,2.15,84.9,1.38C70.34,1.07,55.75,0.71,41.22,1.14
	C30.34,1.46,19.53,3.03,8.67,4.02C6.1,4.25,3.52,4.39,0,4.65z"/>
</svg>
