<?xml version="1.0" encoding="utf-8"?>
<!-- Generator: Adobe Illustrator 25.2.2, SVG Export Plug-In . SVG Version: 6.00 Build 0)  -->
<svg version="1.1" id="Layer_1" xmlns="http://www.w3.org/2000/svg" xmlns:xlink="http://www.w3.org/1999/xlink" x="0px" y="0px"
	 viewBox="0 0 149.6 123.73" style="enable-background:new 0 0 149.6 123.73;" xml:space="preserve">
<g>
	<path d="M73.52,120.91c-0.13-2.33-0.34-4.65-0.36-6.98c-0.1-11.56-0.03-23.12-0.24-34.67c-0.35-19.66-0.93-39.32-1.27-58.98
		c-0.08-4.42,0.28-8.86,0.71-13.27c0.27-2.73,2.81-4.67,5.46-5.3c8.8-2.09,17.64-1.68,26.58-1.31c8.9,0.37,17.83-0.3,26.76-0.4
		c1.98-0.02,4.04,0.2,5.92,0.78c3.48,1.07,6.17,3.13,6.77,7.08c0.97,6.48,2.16,12.93,2.88,19.44c0.99,8.86,1.85,17.75,2.34,26.65
		c0.44,7.99,0.46,16.01,0.42,24.01c-0.05,11-0.39,21.99-0.49,32.99c-0.03,2.89,0.4,5.79,0.59,8.68c0.04,0.66,0.01,1.32,0.01,1.98
		c-0.27,0.04-0.55,0.08-0.82,0.11c-0.25-1.24-0.73-2.47-0.72-3.71c0.06-10.27,0.34-20.54,0.29-30.81
		c-0.03-7.73-0.48-15.45-0.68-23.18c-0.05-2.09,0.34-4.2,0.18-6.27c-0.86-11.43-1.76-22.85-2.81-34.26
		c-0.39-4.25-1.31-8.45-1.82-12.7c-0.9-7.54-5.33-9.39-11.71-9.45c-7.55-0.07-15.1,0.35-22.65,0.44c-3.55,0.04-7.12,0.06-10.64-0.32
		c-6.83-0.74-13.43,0.58-20.05,1.77c-2.64,0.47-4.27,2.22-4.47,4.84c-0.33,4.52-0.53,9.06-0.51,13.59
		c0.07,14.19,0.24,28.39,0.43,42.58c0.2,14.83,0.48,29.66,0.7,44.49c0.06,4,0.01,8.01,0.01,12.01
		C74.05,120.81,73.78,120.86,73.52,120.91z"/>
	<path d="M0,121.04c0.93-0.27,1.85-0.77,2.78-0.78c6.09-0.07,12.19-0.19,18.28,0c7.91,0.24,15.9,0.11,23.68,1.33
		c6.56,1.03,13.06,0.14,19.53,0.96c1.12,0.14,2.2,0.67,3.22,1.18c-22.49-0.77-44.83-3.52-67.33-1.95
		C0.1,121.54,0.05,121.29,0,121.04z"/>
</g>
</svg>
