<?xml version="1.0" encoding="utf-8"?>
<!-- Generator: Adobe Illustrator 25.2.2, SVG Export Plug-In . SVG Version: 6.00 Build 0)  -->
<svg version="1.1" id="Layer_1" xmlns="http://www.w3.org/2000/svg" xmlns:xlink="http://www.w3.org/1999/xlink" x="0px" y="0px"
	 viewBox="0 0 34.44 27.68" style="enable-background:new 0 0 34.44 27.68;" xml:space="preserve">
<path d="M4.85,25.27c0.4-0.1,0.8-0.31,1.19-0.29c7.53,0.48,15.05,0.97,22.57,1.48c2.32,0.16,3.85-0.41,3.92-3.18
	c0.17-6.25,0.5-12.5,0.74-18.75c0.08-1.98-0.88-3.13-2.88-3.18c-2.53-0.06-5.07-0.12-7.6,0C17.25,1.64,11.7,1.89,6.17,2.39
	C2.39,2.73,1.86,3.82,1.8,7.54c-0.08,5.61-0.48,11.21-0.74,16.82c-0.23,0.02-0.46,0.04-0.69,0.06C0.24,23.43-0.02,22.44,0,21.45
	C0.11,16.18,0.27,10.9,0.45,5.62C0.56,2.53,2.06,1.14,6.2,0.83c5.44-0.41,10.91-0.63,16.36-0.8c3.07-0.1,6.15,0.07,9.22,0.13
	c1.78,0.04,2.71,1,2.65,2.75c-0.23,7.42-0.4,14.85-0.81,22.26c-0.12,2.17-2.16,2.54-3.95,2.5c-2.27-0.05-4.54-0.38-6.81-0.49
	c-4.99-0.23-9.99-0.37-14.98-0.61c-1.04-0.05-2.07-0.37-3.1-0.56C4.8,25.77,4.82,25.52,4.85,25.27z"/>
</svg>
