<?xml version="1.0" encoding="utf-8"?>
<!-- Generator: Adobe Illustrator 25.2.2, SVG Export Plug-In . SVG Version: 6.00 Build 0)  -->
<svg version="1.1" id="Layer_1" xmlns="http://www.w3.org/2000/svg" xmlns:xlink="http://www.w3.org/1999/xlink" x="0px" y="0px"
	 viewBox="0 0 39.99 27.29" style="enable-background:new 0 0 39.99 27.29;" xml:space="preserve">
<path d="M2.31,25.01c6.4,0.32,12.8,0.78,19.21,0.92c4.35,0.1,8.73-0.11,13.07-0.46c2.64-0.21,3.75-1.88,3.76-4.43
	c0.03-4.26,0.15-8.53,0.23-12.79c0-0.18,0.03-0.36,0.04-0.54c0.24-5.74-0.25-6.29-5.94-6.23C24.5,1.57,16.31,1.72,8.13,1.85
	C7.49,1.86,6.85,1.9,6.22,1.98c-4,0.53-4.8,1.37-4.85,5.41c-0.04,3.82,0.04,7.65,0.06,11.47c0.01,1.76,0,3.51,0,5.27
	c-0.29,0.02-0.58,0.04-0.87,0.07c-0.16-0.62-0.46-1.25-0.46-1.87C0.05,17.14-0.08,11.95,0.06,6.77C0.2,1.91,1.64,0.81,5,0.72
	c6.54-0.17,13.07-0.52,19.61-0.69c3.46-0.09,6.92,0.05,10.38,0.07c3.84,0.03,4.61,0.52,4.8,4.26c0.17,3.43-0.18,6.89-0.24,10.34
	c-0.04,2.09,0.01,4.18,0.08,6.26c0.11,3.32-1.23,5.33-4.48,5.72c-3.69,0.44-7.44,0.64-11.15,0.59c-6.36-0.08-12.73-0.4-19.09-0.72
	c-1-0.05-1.97-0.63-2.95-0.96C2.08,25.4,2.19,25.21,2.31,25.01z"/>
</svg>
