<?xml version="1.0" encoding="utf-8"?>
<!-- Generator: Adobe Illustrator 25.2.2, SVG Export Plug-In . SVG Version: 6.00 Build 0)  -->
<svg version="1.1" id="Layer_1" xmlns="http://www.w3.org/2000/svg" xmlns:xlink="http://www.w3.org/1999/xlink" x="0px" y="0px"
	 viewBox="0 0 38.58 25.37" style="enable-background:new 0 0 38.58 25.37;" xml:space="preserve">
<path d="M20.81,25.37c-5.62-0.28-11.23-0.6-16.85-0.81c-2.44-0.09-3.51-1.71-3.61-3.65C0.07,15.77,0.22,10.6,0.03,5.45
	c-0.17-4.68,0.23-5.2,4.91-5.23C13.66,0.16,22.38,0.07,31.11,0c5.14-0.04,5.98,0.35,6.56,5.4c0.65,5.67,0.67,11.42,0.91,17.13
	c0.09,2.24-1.61,2.75-3.3,2.78c-3.36,0.07-6.72-0.08-10.08-0.16c-1.45-0.04-2.91-0.13-4.36-0.2C20.82,25.09,20.82,25.23,20.81,25.37
	z M21.96,24.15c0.01-0.04,0.01-0.07,0.02-0.11c4.27,0,8.54,0.03,12.81-0.02c1.31-0.02,2.65-0.24,2.56-2.07
	c-0.24-5.35-0.23-10.74-0.82-16.05c-0.5-4.42-0.93-4.51-5.46-4.49c-9,0.03-18,0.17-27,0.12C1.6,1.52,0.94,2.47,1.12,4.81
	c0.4,5.26,0.61,10.53,0.84,15.8c0.08,1.74,0.72,2.65,2.59,2.72C10.35,23.55,16.16,23.87,21.96,24.15z"/>
</svg>
