<?xml version="1.0" encoding="utf-8"?>
<!-- Generator: Adobe Illustrator 25.2.2, SVG Export Plug-In . SVG Version: 6.00 Build 0)  -->
<svg version="1.1" id="Layer_1" xmlns="http://www.w3.org/2000/svg" xmlns:xlink="http://www.w3.org/1999/xlink" x="0px" y="0px"
	 viewBox="0 0 149.6 123.73" style="enable-background:new 0 0 149.6 123.73;" xml:space="preserve">
<path d="M5.81,123.73c-0.54-3.84-1.28-7.67-1.57-11.53C3.12,97.71,1.82,83.23,1.24,68.71C0.83,58.04,1.58,47.33,1.53,36.63
	c-0.02-4.33-0.99-8.65-1.2-12.99C0.03,17.7-0.03,11.74,0.01,5.78c0-0.65,1.23-1.65,2.06-1.87c4.35-1.15,8.7-2.53,13.14-3.01
	C21.56,0.23,28-0.18,34.37,0.08c11.86,0.47,23.69,1.59,35.55,2.26c6.82,0.39,13.66,0.53,20.5,0.57c2.19,0.01,2.86,0.76,2.8,2.82
	c-0.24,7.44-0.04,14.91-0.69,22.31c-0.51,5.85-2.28,11.57-3.02,17.41c-1.21,9.59-2.05,19.22-3.03,28.84
	c-0.36,3.57-0.97,7.15-0.97,10.73c0.01,6.48,0.44,12.96,0.59,19.44c0.08,3.67,0.01,7.35-0.13,11.02c-0.03,0.81-0.61,1.59-1.26,2.27
	c1.3-7.96-0.18-15.72-0.59-23.52c-0.22-4.15,0.32-8.35,0.68-12.52c0.95-11.08,1.79-22.18,3.06-33.23
	c0.68-5.93,2.42-11.73,3.14-17.66c0.61-4.98,0.42-10.06,0.61-15.09c0.11-3.16,0.24-6.32,0.4-9.49c0.07-1.49-0.42-2.06-2.05-2.13
	C75.53,3.54,61.1,2.91,46.68,2.22c-7.16-0.34-14.34-1.46-21.46-1.07c-7.34,0.4-14.97,0.24-21.84,3.72C2.46,5.34,1.46,6.54,1.31,7.53
	c-0.45,2.93-0.73,5.94-0.63,8.9c0.13,3.75,0.81,7.48,1.07,11.23c0.38,5.53,0.79,11.07,0.86,16.6C2.69,51.27,2.2,58.29,2.4,65.29
	c0.19,6.49,1.05,12.95,1.48,19.43c0.37,5.63,0.42,11.28,0.84,16.91c0.41,5.45,1.11,10.88,1.68,16.32c0.2,1.88,0.35,3.77,0.53,5.66
	C6.56,123.65,6.18,123.69,5.81,123.73z"/>
<path d="M85.66,118.14c10.62,0.62,21.22,1.32,31.86,1.84c8.26,0.41,16.54,0.69,24.83,0.84c2.09,0.04,4.23-0.63,6.75-1.04
	c-0.74,1.69-3.61,1.98-6.22,1.98c-5.27,0-10.55-0.17-15.81-0.43c-13.35-0.68-26.69-1.45-40.03-2.2c-0.54-0.03-1.05-0.17-1.58-0.26
	C85.52,118.63,85.59,118.38,85.66,118.14z"/>
</svg>
